<?xml version="1.0" encoding="UTF-8"?>
<svg version="1.1" xmlns="http://www.w3.org/2000/svg" width="100%" height="1080" viewBox="270 350 1380 380">
    <path d="M0 0 C1.18542007 -0.00679667 1.18542007 -0.00679667 2.39478803 -0.01373065 C5.03386158 -0.02635626 7.67272827 -0.02475546 10.31182861 -0.02310181 C12.20779688 -0.02908826 14.10376271 -0.03589407 15.99972534 -0.04345703 C21.14451856 -0.06111366 26.28924523 -0.06581231 31.43406582 -0.0670886 C34.65070473 -0.0685111 37.86732677 -0.07278261 41.08396149 -0.07808304 C52.31259738 -0.09658314 63.5411858 -0.10475379 74.76983643 -0.10317993 C85.22514222 -0.10197897 95.68024142 -0.1230725 106.13549495 -0.15466726 C115.12084571 -0.18084936 124.10612909 -0.19154639 133.09151769 -0.19026911 C138.45403765 -0.18975999 143.81637404 -0.1954155 149.1788559 -0.21662521 C154.22521144 -0.23603975 159.27120893 -0.23611 164.31757736 -0.22159195 C166.16460317 -0.21950666 168.01165158 -0.224188 169.85863876 -0.23631287 C182.65195129 -0.31482435 192.5819501 0.32213912 202.29718018 9.54867554 C208.84062831 16.2287618 211.13458342 22.12221321 211.48077393 31.39242554 C211.00759483 50.54671521 199.0584118 69.01873191 186.98077393 83.26742554 C186.55570557 83.77612183 186.13063721 84.28481812 185.69268799 84.80892944 C164.95224377 109.4274778 135.01401159 124.39754078 103.17364502 128.08432007 C68.50306855 130.97932478 33.92807835 121.95649189 6.97711182 99.43563843 C-8.80840853 85.81836024 -19.95611803 69.92311794 -29.01922607 51.26742554 C-29.49875732 50.2890271 -29.97828857 49.31062866 -30.47235107 48.30258179 C-34.17730768 39.62724326 -35.01117627 28.16124465 -31.45672607 19.26742554 C-26.87760235 10.84826472 -20.28463548 4.76050464 -11.38981247 1.22115135 C-7.53299159 0.12984284 -3.97072453 -0.01683419 0 0 Z " fill="#000000" transform="translate(1427.0192260742188,394.7325744628906)"/>
    <path d="M0 0 C3.43115526 2.90328522 6.73536676 5.91127409 10 9 C10.82371094 9.75925781 11.64742187 10.51851562 12.49609375 11.30078125 C27.68177152 25.77574087 42.89899565 48.34492361 43.5625 69.8125 C43.32397531 76.03992852 42.33115538 80.73429164 39 86 C38.56429688 86.70769531 38.12859375 87.41539062 37.6796875 88.14453125 C32.97219027 95.07715695 27.00348788 98.73708023 19 101 C16.26628443 101.18648453 13.63627812 101.2788836 10.90484619 101.26742554 C10.10639904 101.27195665 9.30795188 101.27648776 8.48530936 101.28115618 C5.81859738 101.29378318 3.15209007 101.29218091 0.48535156 101.29052734 C-1.43032086 101.29651371 -3.34599087 101.3033195 -5.26165771 101.31088257 C-10.46016809 101.32854007 -15.65861261 101.33323788 -20.85715008 101.33451414 C-24.10729086 101.33593659 -27.35741494 101.340208 -30.60755157 101.34550858 C-41.95289674 101.36400895 -53.29819494 101.37217929 -64.64355469 101.37060547 C-75.20792273 101.36940449 -85.77208633 101.39049828 -96.33640265 101.4220928 C-105.4151708 101.4482739 -114.49387226 101.45897197 -123.57267785 101.45769465 C-128.9910884 101.4571855 -134.40931728 101.46284256 -139.82769012 101.48405075 C-144.92657414 101.50346362 -150.02510378 101.50353666 -155.12400055 101.48901749 C-156.99037699 101.48693199 -158.85677579 101.49161476 -160.72311401 101.5037384 C-172.72763513 101.57663868 -183.19243035 101.3668575 -192.46875 92.703125 C-199.5390137 84.83926027 -201.68370664 76.44732114 -201.37109375 66 C-199.86600469 43.76110405 -181.31709193 21.56991671 -166 7 C-165.3296875 6.34644531 -164.659375 5.69289063 -163.96875 5.01953125 C-120.065097 -36.38959601 -46.47335253 -37.97034166 0 0 Z " fill="#000000" transform="translate(1595,564)"/>
    <path d="M0 0 C1.64510941 0.00015915 3.29022379 0.00585551 4.93530273 0.01586914 C6.23164894 0.01799156 6.23164894 0.01799156 7.55418396 0.02015686 C10.32578941 0.025773 13.09731528 0.0383282 15.86889648 0.05102539 C17.74324428 0.05603831 19.61759334 0.06060158 21.49194336 0.06469727 C26.09679192 0.07574767 30.70158069 0.09302309 35.30639648 0.11352539 C44.09359366 21.07119313 52.7606063 42.07545891 61.3326416 63.12203979 C67.44870047 78.13670582 73.60543549 93.13373018 79.80639648 108.11352539 C86.77824574 124.95703562 93.68859569 141.82477373 100.56665039 158.70678711 C106.60541154 173.52622074 112.68712301 188.32716618 118.80639648 203.11352539 C125.25727872 218.70726194 131.68672775 234.30964143 138.07666016 249.9284668 C138.97398211 252.12091428 139.87224455 254.31297711 140.77148438 256.50463867 C142.01757922 259.54244739 143.26013715 262.58167831 144.50170898 265.62133789 C144.87365387 266.5263504 145.24559875 267.43136292 145.6288147 268.36380005 C145.96859344 269.19789398 146.30837219 270.03198792 146.65844727 270.89135742 C147.10210129 271.97563522 147.10210129 271.97563522 147.55471802 273.08181763 C148.30639648 275.11352539 148.30639648 275.11352539 149.30639648 279.11352539 C135.44639648 279.11352539 121.58639648 279.11352539 107.30639648 279.11352539 C104.7367856 273.97430363 102.40209661 269.10465944 100.28198242 263.8112793 C100.00829834 263.13057373 99.73461426 262.44986816 99.45263672 261.74853516 C98.56190775 259.53041406 97.67615597 257.31034711 96.79077148 255.09008789 C96.16892281 253.53681515 95.54686949 251.98362432 94.92462158 250.43051147 C93.62808878 247.1921141 92.33403225 243.95274151 91.04174805 240.71264648 C89.38306206 236.55447538 87.71813773 232.39883501 86.05138779 228.24389076 C84.7689881 225.04510181 83.489862 221.84501189 82.21173859 218.64451218 C81.59873002 217.1106552 80.98469391 215.57720847 80.36962128 214.04417801 C79.51415386 211.91056762 78.66310276 209.77524914 77.81323242 207.6394043 C77.32788025 206.42443268 76.84252808 205.20946106 76.34246826 203.95767212 C75.30639648 201.11352539 75.30639648 201.11352539 75.30639648 199.11352539 C35.04639648 199.11352539 -5.21360352 199.11352539 -46.69360352 199.11352539 C-47.18860352 202.08352539 -47.18860352 202.08352539 -47.69360352 205.11352539 C-48.2879635 206.975274 -48.93407705 208.82108431 -49.6237793 210.6496582 C-50.02154572 211.71226868 -50.41931213 212.77487915 -50.82913208 213.86968994 C-51.47747513 215.57593536 -51.47747513 215.57593536 -52.13891602 217.31665039 C-52.5870163 218.5084491 -53.03511658 219.7002478 -53.49679565 220.92816162 C-54.6902525 224.09889826 -55.88852132 227.26773124 -57.08905029 230.43579102 C-58.04805795 232.96982413 -59.00234194 235.50562195 -59.95631599 238.0415535 C-65.11950941 251.76540687 -70.37872186 265.44668686 -75.69360352 279.11352539 C-89.22360352 279.11352539 -102.75360352 279.11352539 -116.69360352 279.11352539 C-115.95255263 275.40827094 -115.2302733 272.66474253 -113.83032227 269.25537109 C-113.25104477 267.83510117 -113.25104477 267.83510117 -112.6600647 266.38613892 C-112.23800751 265.36418427 -111.81595032 264.34222961 -111.38110352 263.28930664 C-110.94059662 262.2124057 -110.50008972 261.13550476 -110.04623413 260.02597046 C-108.59934471 256.49100713 -107.14640751 252.95856154 -105.69360352 249.42602539 C-104.683483 246.96049648 -103.67376036 244.49480988 -102.66479492 242.02880859 C-102.15580376 240.78495317 -101.64680105 239.54110247 -101.13778687 238.29725647 C-100.88556744 237.68091906 -100.63334801 237.06458164 -100.37348557 236.42956734 C-99.60562152 234.55384364 -98.83715737 232.67836688 -98.06851196 230.80296326 C-94.04246817 220.97740943 -90.04928808 211.13893767 -86.07446289 201.29257202 C-79.22867727 184.33533671 -72.32738215 167.40109065 -65.41027832 150.47283936 C-59.68801388 136.46728748 -53.98756772 122.45323442 -48.31860352 108.42602539 C-40.78456642 89.78427526 -33.20451481 71.16143202 -25.61132812 52.54370117 C-21.54295427 42.5675593 -17.47659638 32.590734 -13.43969727 22.60180664 C-12.82088244 21.07202137 -12.20206735 19.54223621 -11.58325195 18.01245117 C-10.4808418 15.28668194 -9.38167059 12.55963826 -8.28442383 9.83178711 C-7.81488281 8.67050293 -7.3453418 7.50921875 -6.86157227 6.31274414 C-6.46220459 5.32105225 -6.06283691 4.32936035 -5.65136719 3.30761719 C-4.10162481 -0.24260835 -4.23727809 0.13023559 0 0 Z M14.30639648 38.11352539 C13.93579102 39.19617676 13.56518555 40.27882813 13.18334961 41.39428711 C2.41261048 72.80178242 -9.12411854 103.85429685 -21.26000977 134.75805664 C-21.63343002 135.71017029 -22.00685028 136.66228394 -22.3915863 137.64324951 C-24.19279642 142.23491399 -25.99948519 146.82423796 -27.81835938 151.40893555 C-28.46441717 153.04869038 -29.11033944 154.68849862 -29.75610352 156.32836914 C-30.05525162 157.07625198 -30.35439972 157.82413483 -30.66261292 158.59468079 C-31.83467141 161.58332366 -32.69360352 163.87256984 -32.69360352 167.11352539 C-1.01360352 167.11352539 30.66639648 167.11352539 63.30639648 167.11352539 C61.0778414 159.55523101 61.0778414 159.55523101 58.57080078 152.12524414 C58.26083664 151.27000656 57.9508725 150.41476898 57.6315155 149.53361511 C57.30121841 148.6318605 56.97092133 147.7301059 56.63061523 146.80102539 C56.27256302 145.81761673 55.9145108 144.83420807 55.54560852 143.82099915 C54.36520643 140.58388332 53.17987138 137.34860334 51.99389648 134.11352539 C51.58598877 132.99779144 51.17808105 131.8820575 50.7578125 130.73251343 C42.82768541 109.05104123 34.66715945 87.45923177 26.43017578 65.89282227 C25.74993599 64.10946724 25.74993599 64.10946724 25.05595398 62.29008484 C24.21081806 60.07538586 23.3640327 57.86131524 22.51521301 55.64802551 C20.30006206 49.84401323 18.22462213 44.02256433 16.30639648 38.11352539 C15.64639648 38.11352539 14.98639648 38.11352539 14.30639648 38.11352539 Z " fill="#000000" transform="translate(398.693603515625,361.886474609375)"/>
    <path d="M0 0 C23.25086409 19.02035753 33.90537874 43.48248739 37.4609375 72.80078125 C40.11775804 103.35421743 34.58997987 135.40217662 14.83984375 159.65234375 C12.630071 162.18169563 10.35500283 164.60554989 8 167 C7.24074219 167.77214844 6.48148438 168.54429687 5.69921875 169.33984375 C-3.28787044 177.94450361 -13.44925128 183.41358526 -25.125 187.375 C-25.82818359 187.61371826 -26.53136719 187.85243652 -27.25585938 188.09838867 C-37.59127153 191.37862451 -47.94809827 192.36907138 -58.75 192.3125 C-60.45615479 192.30404053 -60.45615479 192.30404053 -62.19677734 192.29541016 C-88.60022029 191.91644927 -110.38943281 182.61056719 -129.11328125 163.88671875 C-151.38651485 140.22951724 -155.84730202 108.31056557 -155.13183594 77.22753906 C-154.01118315 49.79229858 -143.14304101 22.95660842 -123 4.0625 C-89.46541815 -24.37356392 -35.21124127 -27.03985617 0 0 Z M-100.41796875 29.69140625 C-111.91037899 44.14835782 -117.34489195 62.65697456 -118 81 C-118.03996094 81.83015625 -118.07992187 82.6603125 -118.12109375 83.515625 C-118.68162596 105.54124351 -113.81799757 129.81164039 -98.6875 146.5625 C-88.49362869 157.19078922 -76.343397 162.90415055 -61.56787109 163.41992188 C-45.7094354 163.5470436 -31.93160995 158.95165837 -20.1875 147.9375 C-3.11373883 129.69566492 0.70876329 105.57150374 0.30859375 81.41015625 C-0.43363186 60.76642903 -6.71908889 41.22182034 -21 26 C-32.35591142 15.87664047 -46.00848298 10.36180163 -61.26953125 10.75 C-76.93452773 12.18427722 -89.84591351 17.92380357 -100.41796875 29.69140625 Z " fill="#000000" transform="translate(692,455)"/>
    <path d="M0 0 C13.2 0 26.4 0 40 0 C47.04133088 19.55925245 53.9047408 39.17437502 60.68505859 58.82543945 C65.22890031 72.00566953 65.22890031 72.00566953 69.9765625 85.11328125 C76.32567998 102.27771914 81.57753527 119.67964649 86.6875 137.25 C87.05223419 138.50218323 87.41696838 139.75436646 87.79275513 141.04449463 C88.83015174 144.61648748 89.86027966 148.19046957 90.88671875 151.765625 C91.20174347 152.85473175 91.51676819 153.9438385 91.84133911 155.06594849 C92.12661469 156.06802338 92.41189026 157.07009827 92.70581055 158.10253906 C92.95687057 158.97944397 93.2079306 159.85634888 93.46659851 160.75982666 C94 163 94 163 94 166 C94.66 166 95.32 166 96 166 C96.11738525 165.01539795 96.23477051 164.0307959 96.35571289 163.01635742 C96.96251864 158.79894855 98.08486853 154.81320158 99.30859375 150.73828125 C99.66519829 149.53510254 99.66519829 149.53510254 100.02900696 148.30761719 C100.82412957 145.64019504 101.62945931 142.97603608 102.4375 140.3125 C102.71944214 139.37973236 103.00138428 138.44696472 103.29187012 137.4859314 C110.45871651 113.86375288 118.60717439 90.58770573 126.82910156 67.31622314 C128.01084052 63.96929745 129.1894803 60.62129556 130.3671875 57.27294922 C132.65697834 50.76371493 134.9514534 44.25614754 137.25 37.75 C137.60026245 36.75851959 137.9505249 35.76703918 138.31140137 34.74551392 C139.31503497 31.90777524 140.32109816 29.07091109 141.328125 26.234375 C141.7536969 25.03112831 141.7536969 25.03112831 142.18786621 23.80357361 C145.02536163 15.82845346 148.02617225 7.93020733 151 0 C163.21 0 175.42 0 188 0 C184.62499675 11.25001082 184.62499675 11.25001082 183.07739258 15.40991211 C182.72822281 16.35316345 182.37905304 17.29641479 182.01930237 18.26824951 C181.6481279 19.26125061 181.27695343 20.25425171 180.89453125 21.27734375 C180.49842148 22.34470764 180.10231171 23.41207153 179.69419861 24.51177979 C178.4032654 27.98813059 177.1079244 31.46282058 175.8125 34.9375 C174.90695318 37.37335216 174.00168298 39.80930717 173.09667969 42.24536133 C170.8237956 48.3612887 168.54737337 54.47589194 166.26983643 60.59008789 C164.40574261 65.5957689 162.54461379 70.60255059 160.68359375 75.609375 C157.75003408 83.5003768 154.81301067 91.39008357 151.8744812 99.27923584 C149.32244562 106.13172736 146.7752878 112.98602421 144.2290802 119.84068298 C141.59793069 126.92262563 138.96026376 134.00212841 136.32072449 141.08094788 C133.89977131 147.57649101 131.48949934 154.0759368 129.08253479 160.57667542 C127.24274266 165.54056718 125.39639099 170.50200507 123.54891968 175.46304321 C122.65973441 177.85478036 121.77308547 180.24746241 120.88931274 182.64120483 C93.14621486 257.7559376 93.14621486 257.7559376 63.421875 272.2578125 C54.17625935 276.18283801 45.04749051 277.33432082 35.0625 277.25 C34.15048828 277.25773437 33.23847656 277.26546875 32.29882812 277.2734375 C25.46766561 277.25412679 19.91230807 276.25678328 13 275 C13 265.1 13 255.2 13 245 C16.96 245.33 20.92 245.66 25 246 C36.20964334 246.5038042 45.93831602 244.98988871 55 238 C55.87398437 237.34837891 55.87398437 237.34837891 56.765625 236.68359375 C64.65119494 229.88140167 71.1682475 216.20820405 73 206 C73.43431252 199.91575129 72.0511589 195.54950593 69.87109375 189.99609375 C69.53481461 189.11110703 69.19853546 188.2261203 68.85206604 187.3143158 C68.11499436 185.37833302 67.37265532 183.44434944 66.62573242 181.512146 C64.97761542 177.24751204 63.35576016 172.97302098 61.7315979 168.69921875 C60.85530234 166.39435107 59.97764472 164.09000085 59.09872437 161.78613281 C54.46072844 149.62201926 49.93453599 137.41695756 45.41796875 125.20736694 C43.99112811 121.35031817 42.56223888 117.4940306 41.1328125 113.63793945 C40.89252256 112.9897182 40.65223263 112.34149694 40.40466118 111.67363262 C39.91432165 110.35088838 39.4239747 109.02814689 38.93362045 107.7054081 C38.18773845 105.69323033 37.44200878 103.68099617 36.69631958 101.66874695 C31.02569458 86.36714844 25.34508659 71.06925759 19.66333008 55.77178955 C18.24904935 51.96397758 16.83507842 48.15605065 15.42119503 44.34809113 C14.35408243 41.47424676 13.28673986 38.60048785 12.21933174 35.72675323 C11.72930267 34.40736178 11.23935241 33.08794105 10.74949455 31.76848602 C10.06753482 29.93166669 9.38521079 28.09498262 8.70288086 26.25830078 C8.26885956 25.08736877 7.83483826 23.91643677 7.38766479 22.71002197 C6.37901201 20.01331596 5.35905536 17.32268059 4.32644653 14.63519287 C4.04843232 13.90710356 3.77041811 13.17901424 3.48397923 12.42886162 C2.94516855 11.01918469 2.40241275 9.61100755 1.85518551 8.20457649 C0.75377484 5.31432319 0 3.12222504 0 0 Z " fill="#000000" transform="translate(1121,443)"/>
    <path d="M0 0 C11.88 0 23.76 0 36 0 C36.029729 5.45551392 36.029729 5.45551392 36.06005859 11.02124023 C36.12722078 23.09116153 36.20476016 35.16099574 36.28752708 47.23081875 C36.33741705 54.54261166 36.38386025 61.85439467 36.421875 69.16625977 C36.45505984 75.54737872 36.4950318 81.928415 36.54279006 88.3094421 C36.56779534 91.68080379 36.58863564 95.05205905 36.60334396 98.42349052 C35.78442061 133.33226366 35.78442061 133.33226366 50.5546875 163.7421875 C58.09247226 170.99144461 69.31342764 173.40896257 79.51171875 173.2109375 C92.67429549 172.09511467 104.84930602 168.5067639 114.0859375 158.5859375 C120.7424952 149.5927922 125.10702117 138.99805053 127 128 C127.25577065 126.55076393 127.25577065 126.55076393 127.51670837 125.07225037 C128.26155517 119.77077412 128.17752045 114.44175959 128.20532227 109.09790039 C128.21522186 107.91669617 128.22512146 106.73549194 128.23532104 105.51849365 C128.26139531 102.29794904 128.28330369 99.07740915 128.30332303 95.85682225 C128.32528457 92.48422872 128.35262321 89.11167877 128.37937927 85.73912048 C128.42916936 79.36096181 128.47415858 72.98277877 128.51740164 66.60457271 C128.56689144 59.33970727 128.62176578 52.07488558 128.67708123 44.81006253 C128.79069103 29.87341444 128.8968646 14.93672477 129 0 C140.88 0 152.76 0 165 0 C165 65.34 165 130.68 165 198 C154.11 198 143.22 198 132 198 C131.67 190.74 131.34 183.48 131 176 C129.02 178.31 127.04 180.62 125 183 C111.2209396 195.21547907 93.42383472 202.30074555 75 203 C74.17757812 203.03996094 73.35515625 203.07992187 72.5078125 203.12109375 C53.22517186 203.60745115 33.65503737 199.52932604 19.3125 185.9375 C-2.4307836 162.95174305 -0.32398977 132.81302487 -0.20278788 103.2160871 C-0.19007195 99.57268039 -0.18909393 95.92926837 -0.18673706 92.2858429 C-0.18058235 85.4228964 -0.16425522 78.56001552 -0.14403808 71.6970976 C-0.12148905 63.86847383 -0.11063846 56.0398465 -0.10064721 48.21119821 C-0.07988176 32.14075461 -0.04328324 16.07040113 0 0 Z " fill="#000000" transform="translate(747,443)"/>
    <path d="M0 0 C11.88 0 23.76 0 36 0 C36 92.07 36 184.14 36 279 C24.12 279 12.24 279 0 279 C0 186.93 0 94.86 0 0 Z " fill="#000000" transform="translate(1068,362)"/>
    <path d="M0 0 C0 10.89 0 21.78 0 33 C-4.95 32.34 -9.9 31.68 -15 31 C-31.40620703 29.95596864 -46.2116846 31.87092805 -59 43 C-66.58537182 52.6263511 -70.66901851 63.7322874 -72.75 75.6875 C-72.92354004 76.67278687 -72.92354004 76.67278687 -73.10058594 77.67797852 C-75.53845986 93.48896172 -75.18425428 109.80502451 -75.31640625 125.7578125 C-75.33703873 127.88443344 -75.35803653 130.01105086 -75.37937927 132.13766479 C-75.43395143 137.67105213 -75.48364004 143.20447235 -75.53222656 148.73791504 C-75.58292258 154.40994104 -75.63835468 160.08192068 -75.69335938 165.75390625 C-75.80014467 176.83589895 -75.90131927 187.91793216 -76 199 C-87.88 199 -99.76 199 -112 199 C-112 133.66 -112 68.32 -112 1 C-100.45 1 -88.9 1 -77 1 C-76.505 12.88 -76.505 12.88 -76 25 C-74.370625 23.164375 -72.74125 21.32875 -71.0625 19.4375 C-50.95931844 -2.64952859 -28.41748115 -3.55218514 0 0 Z " fill="#000000" transform="translate(1050,442)"/>
    <path d="M0 0 C1.98 0 3.96 0 6 0 C7.98 4.62 9.96 9.24 12 14 C12.804375 11.875625 13.60875 9.75125 14.4375 7.5625 C16.875 1.125 16.875 1.125 18 0 C19.65 0 21.3 0 23 0 C23 7.26 23 14.52 23 22 C21.68 22 20.36 22 19 22 C18.67 18.37 18.34 14.74 18 11 C16.68 14.63 15.36 18.26 14 22 C12.35 21.67 10.7 21.34 9 21 C7.08334899 17.47973267 6.19503169 13.85065767 5 10 C4.67 13.96 4.34 17.92 4 22 C2.68 22 1.36 22 0 22 C0 14.74 0 7.48 0 0 Z " fill="#000000" transform="translate(1286,381)"/>
    <path d="M0 0 C5.61 0 11.22 0 17 0 C17 0.99 17 1.98 17 3 C14.69 3 12.38 3 10 3 C10 9.27 10 15.54 10 22 C9.01 22 8.02 22 7 22 C7 15.73 7 9.46 7 3 C4.69 3 2.38 3 0 3 C0 2.01 0 1.02 0 0 Z " fill="#000000" transform="translate(1268,381)"/>
</svg>
